<?xml version="1.0" encoding="utf-8"?>
<!-- Generator: Adobe Illustrator 16.0.0, SVG Export Plug-In . SVG Version: 6.00 Build 0)  -->
<!DOCTYPE svg PUBLIC "-//W3C//DTD SVG 1.1//EN" "http://www.w3.org/Graphics/SVG/1.1/DTD/svg11.dtd">
<svg version="1.1" id="Layer_1" xmlns="http://www.w3.org/2000/svg" xmlns:xlink="http://www.w3.org/1999/xlink" x="0px" y="0px"
	 width="26px" height="150px" viewBox="0 0 26 150" enable-background="new 0 0 26 150" xml:space="preserve">
<g>
	<g>
		<g>
			<path fill="#FFFFFF" d="M6.582,0h12.912c4.173,0,6.508,3.219,6.508,7.287c0,3.784-2.193,6.756-6.084,6.756h-2.793V9.515h2.368
				c1.344,0,2.192-0.885,2.192-2.228c0-1.521-0.92-2.229-2.299-2.229H6.793c-1.521,0-2.406,0.814-2.406,2.263
				c0,1.309,0.884,2.194,2.193,2.194h2.3v4.528H6.297C2.334,14.043,0,11.106,0,7.25C0.002,3.077,2.159,0,6.582,0"/>
			<path fill="#FFFFFF" d="M25.647,19.627v6.793L0.39,31.336v-5.059l5.659-1.025v-5.127L0.39,19.098V14.5L25.647,19.627z
				 M10.086,24.438l9.937-1.662V22.67l-9.937-1.734V24.438z"/>
			<path fill="#FFFFFF" d="M25.612,32.494v7.25c0,4.244-2.334,6.826-7.463,6.826c-3.645,0-5.696-1.168-6.651-2.936L0.39,46.889
				v-5.164l10.014-2.584v-1.66H0.392v-4.986H25.612L25.612,32.494z M14.118,39.32c0,1.414,0.988,2.264,3.713,2.264
				c2.371,0,3.644-0.742,3.644-2.299V37.48h-7.356V39.32L14.118,39.32z"/>
			<polygon fill="#FFFFFF" points="21.403,52.188 21.403,47.414 25.61,47.414 25.61,61.949 21.403,61.949 21.403,57.211 
				0.392,57.211 0.392,52.188 			"/>
			<polygon fill="#FFFFFF" points="25.61,63.076 25.61,75.207 21.403,75.207 21.403,68.027 15.459,68.027 15.459,73.723 
				11.216,73.723 11.216,68.027 4.67,68.027 4.67,75.244 0.392,75.244 0.392,63.076 			"/>
			<path fill="#FFFFFF" d="M25.612,76.566v7.252c0,4.244-2.334,6.826-7.463,6.826c-3.646,0-5.696-1.168-6.651-2.938L0.39,90.961
				v-5.164l10.014-2.582v-1.664H0.392v-4.986L25.612,76.566L25.612,76.566z M14.117,83.393c0,1.416,0.989,2.266,3.713,2.266
				c2.372,0,3.645-0.742,3.645-2.299v-1.805h-7.357V83.393L14.117,83.393z"/>
			<path fill="#FFFFFF" d="M25.61,96.799v7.287c0,3.854-1.981,6.896-6.083,6.896H6.794c-4.389,0-6.404-3.043-6.404-6.934v-7.252
				h25.22V96.799z M4.67,103.625c0,1.699,1.203,2.299,2.407,2.299h11.99c1.31,0,2.299-0.742,2.299-2.371v-1.803H4.67V103.625z"/>
			<path fill="#FFFFFF" d="M6.901,112.293H19.14c4.489,0,6.86,3.146,6.86,7.32c0,4.066-2.122,7.287-6.792,7.287H6.972
				c-4.707,0-6.971-3.254-6.971-7.32C0.001,115.264,2.194,112.293,6.901,112.293 M6.794,121.877h12.558
				c1.448,0,2.298-0.92,2.298-2.299c0-1.486-0.919-2.229-2.333-2.229H6.83c-1.414,0-2.442,0.777-2.442,2.264
				C4.387,121.1,5.415,121.877,6.794,121.877"/>
			<polygon fill="#FFFFFF" points="25.61,127.363 25.61,132.279 10.544,134.295 10.544,134.402 25.61,136.629 25.61,141.404 
				10.616,143.527 10.616,143.598 25.61,145.613 25.61,150 0.285,145.932 0.285,141.299 16.344,138.857 16.344,138.717 
				0.285,136.207 0.285,131.502 			"/>
		</g>
	</g>
</g>
</svg>
