<?xml version="1.0" encoding="utf-8"?>
<!-- Generator: Adobe Illustrator 16.0.0, SVG Export Plug-In . SVG Version: 6.00 Build 0)  -->
<!DOCTYPE svg PUBLIC "-//W3C//DTD SVG 1.1//EN" "http://www.w3.org/Graphics/SVG/1.1/DTD/svg11.dtd">
<svg version="1.1" id="Layer_1" xmlns="http://www.w3.org/2000/svg" xmlns:xlink="http://www.w3.org/1999/xlink" x="0px" y="0px"
	 width="150px" height="26px" viewBox="0 0 150 26" enable-background="new 0 0 150 26" xml:space="preserve">
<g>
	<g>
		<g>
			<path fill="#FFFFFF" d="M0,19.419V6.508C0,2.335,3.219,0,7.287,0c3.784,0,6.755,2.193,6.755,6.084v2.793H9.515V6.509
				c0-1.344-0.885-2.193-2.228-2.193c-1.521,0-2.229,0.92-2.229,2.299v12.593c0,1.521,0.814,2.406,2.263,2.406
				c1.309,0,2.194-0.884,2.194-2.193v-2.3h4.527v2.583c0,3.963-2.936,6.297-6.792,6.297C3.077,25.999,0,23.842,0,19.419"/>
			<path fill="#FFFFFF" d="M19.627,0.354h6.792l4.916,25.257h-5.057l-1.026-5.659h-5.128l-1.026,5.659H14.5L19.627,0.354z
				 M24.438,15.915l-1.662-9.937H22.67l-1.734,9.937H24.438z"/>
			<path fill="#FFFFFF" d="M32.493,0.389h7.251c4.245,0,6.826,2.334,6.826,7.463c0,3.645-1.167,5.696-2.936,6.651l3.254,11.108
				h-5.164l-2.583-10.014H37.48v10.012h-4.987V0.389L32.493,0.389z M39.32,11.884c1.414,0,2.264-0.989,2.264-3.713
				c0-2.371-0.743-3.644-2.299-3.644H37.48v7.357H39.32L39.32,11.884z"/>
			<polygon fill="#FFFFFF" points="52.188,4.598 47.413,4.598 47.413,0.391 61.949,0.391 61.949,4.598 57.21,4.598 57.21,25.609 
				52.188,25.609 			"/>
			<polygon fill="#FFFFFF" points="63.076,0.391 75.207,0.391 75.207,4.598 68.027,4.598 68.027,10.541 73.722,10.541 
				73.722,14.785 68.027,14.785 68.027,21.331 75.244,21.331 75.244,25.609 63.076,25.609 			"/>
			<path fill="#FFFFFF" d="M76.566,0.389h7.252c4.244,0,6.826,2.334,6.826,7.463c0,3.645-1.168,5.696-2.937,6.651l3.254,11.108
				h-5.164l-2.583-10.014h-1.663v10.012h-4.987L76.566,0.389L76.566,0.389z M83.393,11.884c1.416,0,2.265-0.989,2.265-3.713
				c0-2.371-0.742-3.644-2.298-3.644h-1.805v7.357H83.393L83.393,11.884z"/>
			<path fill="#FFFFFF" d="M96.798,0.391h7.288c3.854,0,6.896,1.981,6.896,6.083v12.733c0,4.389-3.043,6.404-6.933,6.404h-7.252
				V0.391L96.798,0.391z M103.625,21.331c1.699,0,2.299-1.203,2.299-2.407V6.934c0-1.31-0.742-2.299-2.371-2.299h-1.803v16.696
				H103.625z"/>
			<path fill="#FFFFFF" d="M112.292,19.1V6.861c0-4.49,3.147-6.861,7.321-6.861c4.066,0,7.287,2.122,7.287,6.792v12.237
				c0,4.707-3.254,6.971-7.321,6.971C115.264,26,112.292,23.807,112.292,19.1 M121.877,19.207V6.649
				c0-1.449-0.921-2.298-2.299-2.298c-1.486,0-2.229,0.919-2.229,2.333v12.487c0,1.414,0.778,2.442,2.264,2.442
				C121.1,21.614,121.877,20.586,121.877,19.207"/>
			<polygon fill="#FFFFFF" points="127.363,0.391 132.279,0.391 134.295,15.457 134.402,15.457 136.629,0.391 141.404,0.391 
				143.527,15.385 143.598,15.385 145.613,0.391 150,0.391 145.932,25.716 141.299,25.716 138.857,9.656 138.716,9.656 
				136.206,25.716 131.501,25.716 			"/>
		</g>
	</g>
</g>
</svg>
